<?xml version="1.0" encoding="utf-8" standalone="no"?>
<!DOCTYPE svg PUBLIC "-//W3C//DTD SVG 1.1//EN"
  "http://www.w3.org/Graphics/SVG/1.1/DTD/svg11.dtd">
<!-- Created with matplotlib (http://matplotlib.org/) -->
<svg height="422pt" version="1.1" viewBox="0 0 704 422" width="704pt" xmlns="http://www.w3.org/2000/svg" xmlns:xlink="http://www.w3.org/1999/xlink">
 <defs>
  <style type="text/css">
*{stroke-linecap:butt;stroke-linejoin:round;}
  </style>
 </defs>
 <g id="figure_1">
  <g id="patch_1">
   <path d="M 0 422.64 
L 704.16 422.64 
L 704.16 0 
L 0 0 
z
" style="fill:#f0f0f0;"/>
  </g>
  <g id="axes_1">
   <g id="patch_2">
    <path d="M 69.413313 179.674812 
L 356.061656 179.674812 
L 356.061656 18.998906 
L 69.413313 18.998906 
z
" style="fill:#f0f0f0;"/>
   </g>
   <g id="matplotlib.axis_1">
    <g id="xtick_1">
     <g id="line2d_1">
      <path clip-path="url(#p4efdd91c0e)" d="M 83.74573 179.674812 
L 83.74573 18.998906 
" style="fill:none;stroke:#cbcbcb;"/>
     </g>
     <g id="line2d_2"/>
     <g id="text_1">
      <!-- royalties -->
      <defs>
       <path d="M 41.109375 46.296875 
Q 39.59375 47.171875 37.8125 47.578125 
Q 36.03125 48 33.890625 48 
Q 26.265625 48 22.1875 43.046875 
Q 18.109375 38.09375 18.109375 28.8125 
L 18.109375 0 
L 9.078125 0 
L 9.078125 54.6875 
L 18.109375 54.6875 
L 18.109375 46.1875 
Q 20.953125 51.171875 25.484375 53.578125 
Q 30.03125 56 36.53125 56 
Q 37.453125 56 38.578125 55.875 
Q 39.703125 55.765625 41.0625 55.515625 
z
" id="DejaVuSans-72"/>
       <path d="M 30.609375 48.390625 
Q 23.390625 48.390625 19.1875 42.75 
Q 14.984375 37.109375 14.984375 27.296875 
Q 14.984375 17.484375 19.15625 11.84375 
Q 23.34375 6.203125 30.609375 6.203125 
Q 37.796875 6.203125 41.984375 11.859375 
Q 46.1875 17.53125 46.1875 27.296875 
Q 46.1875 37.015625 41.984375 42.703125 
Q 37.796875 48.390625 30.609375 48.390625 
z
M 30.609375 56 
Q 42.328125 56 49.015625 48.375 
Q 55.71875 40.765625 55.71875 27.296875 
Q 55.71875 13.875 49.015625 6.21875 
Q 42.328125 -1.421875 30.609375 -1.421875 
Q 18.84375 -1.421875 12.171875 6.21875 
Q 5.515625 13.875 5.515625 27.296875 
Q 5.515625 40.765625 12.171875 48.375 
Q 18.84375 56 30.609375 56 
z
" id="DejaVuSans-6f"/>
       <path d="M 32.171875 -5.078125 
Q 28.375 -14.84375 24.75 -17.8125 
Q 21.140625 -20.796875 15.09375 -20.796875 
L 7.90625 -20.796875 
L 7.90625 -13.28125 
L 13.1875 -13.28125 
Q 16.890625 -13.28125 18.9375 -11.515625 
Q 21 -9.765625 23.484375 -3.21875 
L 25.09375 0.875 
L 2.984375 54.6875 
L 12.5 54.6875 
L 29.59375 11.921875 
L 46.6875 54.6875 
L 56.203125 54.6875 
z
" id="DejaVuSans-79"/>
       <path d="M 34.28125 27.484375 
Q 23.390625 27.484375 19.1875 25 
Q 14.984375 22.515625 14.984375 16.5 
Q 14.984375 11.71875 18.140625 8.90625 
Q 21.296875 6.109375 26.703125 6.109375 
Q 34.1875 6.109375 38.703125 11.40625 
Q 43.21875 16.703125 43.21875 25.484375 
L 43.21875 27.484375 
z
M 52.203125 31.203125 
L 52.203125 0 
L 43.21875 0 
L 43.21875 8.296875 
Q 40.140625 3.328125 35.546875 0.953125 
Q 30.953125 -1.421875 24.3125 -1.421875 
Q 15.921875 -1.421875 10.953125 3.296875 
Q 6 8.015625 6 15.921875 
Q 6 25.140625 12.171875 29.828125 
Q 18.359375 34.515625 30.609375 34.515625 
L 43.21875 34.515625 
L 43.21875 35.40625 
Q 43.21875 41.609375 39.140625 45 
Q 35.0625 48.390625 27.6875 48.390625 
Q 23 48.390625 18.546875 47.265625 
Q 14.109375 46.140625 10.015625 43.890625 
L 10.015625 52.203125 
Q 14.9375 54.109375 19.578125 55.046875 
Q 24.21875 56 28.609375 56 
Q 40.484375 56 46.34375 49.84375 
Q 52.203125 43.703125 52.203125 31.203125 
z
" id="DejaVuSans-61"/>
       <path d="M 9.421875 75.984375 
L 18.40625 75.984375 
L 18.40625 0 
L 9.421875 0 
z
" id="DejaVuSans-6c"/>
       <path d="M 18.3125 70.21875 
L 18.3125 54.6875 
L 36.8125 54.6875 
L 36.8125 47.703125 
L 18.3125 47.703125 
L 18.3125 18.015625 
Q 18.3125 11.328125 20.140625 9.421875 
Q 21.96875 7.515625 27.59375 7.515625 
L 36.8125 7.515625 
L 36.8125 0 
L 27.59375 0 
Q 17.1875 0 13.234375 3.875 
Q 9.28125 7.765625 9.28125 18.015625 
L 9.28125 47.703125 
L 2.6875 47.703125 
L 2.6875 54.6875 
L 9.28125 54.6875 
L 9.28125 70.21875 
z
" id="DejaVuSans-74"/>
       <path d="M 9.421875 54.6875 
L 18.40625 54.6875 
L 18.40625 0 
L 9.421875 0 
z
M 9.421875 75.984375 
L 18.40625 75.984375 
L 18.40625 64.59375 
L 9.421875 64.59375 
z
" id="DejaVuSans-69"/>
       <path d="M 56.203125 29.59375 
L 56.203125 25.203125 
L 14.890625 25.203125 
Q 15.484375 15.921875 20.484375 11.0625 
Q 25.484375 6.203125 34.421875 6.203125 
Q 39.59375 6.203125 44.453125 7.46875 
Q 49.3125 8.734375 54.109375 11.28125 
L 54.109375 2.78125 
Q 49.265625 0.734375 44.1875 -0.34375 
Q 39.109375 -1.421875 33.890625 -1.421875 
Q 20.796875 -1.421875 13.15625 6.1875 
Q 5.515625 13.8125 5.515625 26.8125 
Q 5.515625 40.234375 12.765625 48.109375 
Q 20.015625 56 32.328125 56 
Q 43.359375 56 49.78125 48.890625 
Q 56.203125 41.796875 56.203125 29.59375 
z
M 47.21875 32.234375 
Q 47.125 39.59375 43.09375 43.984375 
Q 39.0625 48.390625 32.421875 48.390625 
Q 24.90625 48.390625 20.390625 44.140625 
Q 15.875 39.890625 15.1875 32.171875 
z
" id="DejaVuSans-65"/>
       <path d="M 44.28125 53.078125 
L 44.28125 44.578125 
Q 40.484375 46.53125 36.375 47.5 
Q 32.28125 48.484375 27.875 48.484375 
Q 21.1875 48.484375 17.84375 46.4375 
Q 14.5 44.390625 14.5 40.28125 
Q 14.5 37.15625 16.890625 35.375 
Q 19.28125 33.59375 26.515625 31.984375 
L 29.59375 31.296875 
Q 39.15625 29.25 43.1875 25.515625 
Q 47.21875 21.78125 47.21875 15.09375 
Q 47.21875 7.46875 41.1875 3.015625 
Q 35.15625 -1.421875 24.609375 -1.421875 
Q 20.21875 -1.421875 15.453125 -0.5625 
Q 10.6875 0.296875 5.421875 2 
L 5.421875 11.28125 
Q 10.40625 8.6875 15.234375 7.390625 
Q 20.0625 6.109375 24.8125 6.109375 
Q 31.15625 6.109375 34.5625 8.28125 
Q 37.984375 10.453125 37.984375 14.40625 
Q 37.984375 18.0625 35.515625 20.015625 
Q 33.0625 21.96875 24.703125 23.78125 
L 21.578125 24.515625 
Q 13.234375 26.265625 9.515625 29.90625 
Q 5.8125 33.546875 5.8125 39.890625 
Q 5.8125 47.609375 11.28125 51.796875 
Q 16.75 56 26.8125 56 
Q 31.78125 56 36.171875 55.265625 
Q 40.578125 54.546875 44.28125 53.078125 
z
" id="DejaVuSans-73"/>
      </defs>
      <g transform="translate(87.608855 243.532312)rotate(-90)scale(0.14 -0.14)">
       <use xlink:href="#DejaVuSans-72"/>
       <use x="41.082031" xlink:href="#DejaVuSans-6f"/>
       <use x="102.263672" xlink:href="#DejaVuSans-79"/>
       <use x="161.443359" xlink:href="#DejaVuSans-61"/>
       <use x="222.722656" xlink:href="#DejaVuSans-6c"/>
       <use x="250.505859" xlink:href="#DejaVuSans-74"/>
       <use x="289.714844" xlink:href="#DejaVuSans-69"/>
       <use x="317.498047" xlink:href="#DejaVuSans-65"/>
       <use x="379.021484" xlink:href="#DejaVuSans-73"/>
      </g>
     </g>
    </g>
    <g id="xtick_2">
     <g id="line2d_3">
      <path clip-path="url(#p4efdd91c0e)" d="M 112.410564 179.674812 
L 112.410564 18.998906 
" style="fill:none;stroke:#cbcbcb;"/>
     </g>
     <g id="line2d_4"/>
     <g id="text_2">
      <!-- flappycoin -->
      <defs>
       <path d="M 37.109375 75.984375 
L 37.109375 68.5 
L 28.515625 68.5 
Q 23.6875 68.5 21.796875 66.546875 
Q 19.921875 64.59375 19.921875 59.515625 
L 19.921875 54.6875 
L 34.71875 54.6875 
L 34.71875 47.703125 
L 19.921875 47.703125 
L 19.921875 0 
L 10.890625 0 
L 10.890625 47.703125 
L 2.296875 47.703125 
L 2.296875 54.6875 
L 10.890625 54.6875 
L 10.890625 58.5 
Q 10.890625 67.625 15.140625 71.796875 
Q 19.390625 75.984375 28.609375 75.984375 
z
" id="DejaVuSans-66"/>
       <path d="M 18.109375 8.203125 
L 18.109375 -20.796875 
L 9.078125 -20.796875 
L 9.078125 54.6875 
L 18.109375 54.6875 
L 18.109375 46.390625 
Q 20.953125 51.265625 25.265625 53.625 
Q 29.59375 56 35.59375 56 
Q 45.5625 56 51.78125 48.09375 
Q 58.015625 40.1875 58.015625 27.296875 
Q 58.015625 14.40625 51.78125 6.484375 
Q 45.5625 -1.421875 35.59375 -1.421875 
Q 29.59375 -1.421875 25.265625 0.953125 
Q 20.953125 3.328125 18.109375 8.203125 
z
M 48.6875 27.296875 
Q 48.6875 37.203125 44.609375 42.84375 
Q 40.53125 48.484375 33.40625 48.484375 
Q 26.265625 48.484375 22.1875 42.84375 
Q 18.109375 37.203125 18.109375 27.296875 
Q 18.109375 17.390625 22.1875 11.75 
Q 26.265625 6.109375 33.40625 6.109375 
Q 40.53125 6.109375 44.609375 11.75 
Q 48.6875 17.390625 48.6875 27.296875 
z
" id="DejaVuSans-70"/>
       <path d="M 48.78125 52.59375 
L 48.78125 44.1875 
Q 44.96875 46.296875 41.140625 47.34375 
Q 37.3125 48.390625 33.40625 48.390625 
Q 24.65625 48.390625 19.8125 42.84375 
Q 14.984375 37.3125 14.984375 27.296875 
Q 14.984375 17.28125 19.8125 11.734375 
Q 24.65625 6.203125 33.40625 6.203125 
Q 37.3125 6.203125 41.140625 7.25 
Q 44.96875 8.296875 48.78125 10.40625 
L 48.78125 2.09375 
Q 45.015625 0.34375 40.984375 -0.53125 
Q 36.96875 -1.421875 32.421875 -1.421875 
Q 20.0625 -1.421875 12.78125 6.34375 
Q 5.515625 14.109375 5.515625 27.296875 
Q 5.515625 40.671875 12.859375 48.328125 
Q 20.21875 56 33.015625 56 
Q 37.15625 56 41.109375 55.140625 
Q 45.0625 54.296875 48.78125 52.59375 
z
" id="DejaVuSans-63"/>
       <path d="M 54.890625 33.015625 
L 54.890625 0 
L 45.90625 0 
L 45.90625 32.71875 
Q 45.90625 40.484375 42.875 44.328125 
Q 39.84375 48.1875 33.796875 48.1875 
Q 26.515625 48.1875 22.3125 43.546875 
Q 18.109375 38.921875 18.109375 30.90625 
L 18.109375 0 
L 9.078125 0 
L 9.078125 54.6875 
L 18.109375 54.6875 
L 18.109375 46.1875 
Q 21.34375 51.125 25.703125 53.5625 
Q 30.078125 56 35.796875 56 
Q 45.21875 56 50.046875 50.171875 
Q 54.890625 44.34375 54.890625 33.015625 
z
" id="DejaVuSans-6e"/>
      </defs>
      <g transform="translate(116.273689 255.659812)rotate(-90)scale(0.14 -0.14)">
       <use xlink:href="#DejaVuSans-66"/>
       <use x="35.205078" xlink:href="#DejaVuSans-6c"/>
       <use x="62.988281" xlink:href="#DejaVuSans-61"/>
       <use x="124.267578" xlink:href="#DejaVuSans-70"/>
       <use x="187.744141" xlink:href="#DejaVuSans-70"/>
       <use x="251.220703" xlink:href="#DejaVuSans-79"/>
       <use x="310.400391" xlink:href="#DejaVuSans-63"/>
       <use x="365.380859" xlink:href="#DejaVuSans-6f"/>
       <use x="426.5625" xlink:href="#DejaVuSans-69"/>
       <use x="454.345703" xlink:href="#DejaVuSans-6e"/>
      </g>
     </g>
    </g>
    <g id="xtick_3">
     <g id="line2d_5">
      <path clip-path="url(#p4efdd91c0e)" d="M 141.075398 179.674812 
L 141.075398 18.998906 
" style="fill:none;stroke:#cbcbcb;"/>
     </g>
     <g id="line2d_6"/>
     <g id="text_3">
      <!-- credence-coin -->
      <defs>
       <path d="M 45.40625 46.390625 
L 45.40625 75.984375 
L 54.390625 75.984375 
L 54.390625 0 
L 45.40625 0 
L 45.40625 8.203125 
Q 42.578125 3.328125 38.25 0.953125 
Q 33.9375 -1.421875 27.875 -1.421875 
Q 17.96875 -1.421875 11.734375 6.484375 
Q 5.515625 14.40625 5.515625 27.296875 
Q 5.515625 40.1875 11.734375 48.09375 
Q 17.96875 56 27.875 56 
Q 33.9375 56 38.25 53.625 
Q 42.578125 51.265625 45.40625 46.390625 
z
M 14.796875 27.296875 
Q 14.796875 17.390625 18.875 11.75 
Q 22.953125 6.109375 30.078125 6.109375 
Q 37.203125 6.109375 41.296875 11.75 
Q 45.40625 17.390625 45.40625 27.296875 
Q 45.40625 37.203125 41.296875 42.84375 
Q 37.203125 48.484375 30.078125 48.484375 
Q 22.953125 48.484375 18.875 42.84375 
Q 14.796875 37.203125 14.796875 27.296875 
z
" id="DejaVuSans-64"/>
       <path d="M 4.890625 31.390625 
L 31.203125 31.390625 
L 31.203125 23.390625 
L 4.890625 23.390625 
z
" id="DejaVuSans-2d"/>
      </defs>
      <g transform="translate(144.938523 282.001687)rotate(-90)scale(0.14 -0.14)">
       <use xlink:href="#DejaVuSans-63"/>
       <use x="54.980469" xlink:href="#DejaVuSans-72"/>
       <use x="96.0625" xlink:href="#DejaVuSans-65"/>
       <use x="157.585938" xlink:href="#DejaVuSans-64"/>
       <use x="221.0625" xlink:href="#DejaVuSans-65"/>
       <use x="282.585938" xlink:href="#DejaVuSans-6e"/>
       <use x="345.964844" xlink:href="#DejaVuSans-63"/>
       <use x="400.945312" xlink:href="#DejaVuSans-65"/>
       <use x="462.46875" xlink:href="#DejaVuSans-2d"/>
       <use x="498.552734" xlink:href="#DejaVuSans-63"/>
       <use x="553.533203" xlink:href="#DejaVuSans-6f"/>
       <use x="614.714844" xlink:href="#DejaVuSans-69"/>
       <use x="642.498047" xlink:href="#DejaVuSans-6e"/>
      </g>
     </g>
    </g>
    <g id="xtick_4">
     <g id="line2d_7">
      <path clip-path="url(#p4efdd91c0e)" d="M 169.740233 179.674812 
L 169.740233 18.998906 
" style="fill:none;stroke:#cbcbcb;"/>
     </g>
     <g id="line2d_8"/>
     <g id="text_4">
      <!-- cagecoin -->
      <defs>
       <path d="M 45.40625 27.984375 
Q 45.40625 37.75 41.375 43.109375 
Q 37.359375 48.484375 30.078125 48.484375 
Q 22.859375 48.484375 18.828125 43.109375 
Q 14.796875 37.75 14.796875 27.984375 
Q 14.796875 18.265625 18.828125 12.890625 
Q 22.859375 7.515625 30.078125 7.515625 
Q 37.359375 7.515625 41.375 12.890625 
Q 45.40625 18.265625 45.40625 27.984375 
z
M 54.390625 6.78125 
Q 54.390625 -7.171875 48.1875 -13.984375 
Q 42 -20.796875 29.203125 -20.796875 
Q 24.46875 -20.796875 20.265625 -20.09375 
Q 16.0625 -19.390625 12.109375 -17.921875 
L 12.109375 -9.1875 
Q 16.0625 -11.328125 19.921875 -12.34375 
Q 23.78125 -13.375 27.78125 -13.375 
Q 36.625 -13.375 41.015625 -8.765625 
Q 45.40625 -4.15625 45.40625 5.171875 
L 45.40625 9.625 
Q 42.625 4.78125 38.28125 2.390625 
Q 33.9375 0 27.875 0 
Q 17.828125 0 11.671875 7.65625 
Q 5.515625 15.328125 5.515625 27.984375 
Q 5.515625 40.671875 11.671875 48.328125 
Q 17.828125 56 27.875 56 
Q 33.9375 56 38.28125 53.609375 
Q 42.625 51.21875 45.40625 46.390625 
L 45.40625 54.6875 
L 54.390625 54.6875 
z
" id="DejaVuSans-67"/>
      </defs>
      <g transform="translate(173.603358 245.980125)rotate(-90)scale(0.14 -0.14)">
       <use xlink:href="#DejaVuSans-63"/>
       <use x="54.980469" xlink:href="#DejaVuSans-61"/>
       <use x="116.259766" xlink:href="#DejaVuSans-67"/>
       <use x="179.736328" xlink:href="#DejaVuSans-65"/>
       <use x="241.259766" xlink:href="#DejaVuSans-63"/>
       <use x="296.240234" xlink:href="#DejaVuSans-6f"/>
       <use x="357.421875" xlink:href="#DejaVuSans-69"/>
       <use x="385.205078" xlink:href="#DejaVuSans-6e"/>
      </g>
     </g>
    </g>
    <g id="xtick_5">
     <g id="line2d_9">
      <path clip-path="url(#p4efdd91c0e)" d="M 198.405067 179.674812 
L 198.405067 18.998906 
" style="fill:none;stroke:#cbcbcb;"/>
     </g>
     <g id="line2d_10"/>
     <g id="text_5">
      <!-- tyrocoin -->
      <g transform="translate(202.268192 240.292625)rotate(-90)scale(0.14 -0.14)">
       <use xlink:href="#DejaVuSans-74"/>
       <use x="39.208984" xlink:href="#DejaVuSans-79"/>
       <use x="98.388672" xlink:href="#DejaVuSans-72"/>
       <use x="139.470703" xlink:href="#DejaVuSans-6f"/>
       <use x="200.652344" xlink:href="#DejaVuSans-63"/>
       <use x="255.632812" xlink:href="#DejaVuSans-6f"/>
       <use x="316.814453" xlink:href="#DejaVuSans-69"/>
       <use x="344.597656" xlink:href="#DejaVuSans-6e"/>
      </g>
     </g>
    </g>
    <g id="xtick_6">
     <g id="line2d_11">
      <path clip-path="url(#p4efdd91c0e)" d="M 227.069902 179.674812 
L 227.069902 18.998906 
" style="fill:none;stroke:#cbcbcb;"/>
     </g>
     <g id="line2d_12"/>
     <g id="text_6">
      <!-- electra -->
      <g transform="translate(230.933027 231.813875)rotate(-90)scale(0.14 -0.14)">
       <use xlink:href="#DejaVuSans-65"/>
       <use x="61.523438" xlink:href="#DejaVuSans-6c"/>
       <use x="89.306641" xlink:href="#DejaVuSans-65"/>
       <use x="150.830078" xlink:href="#DejaVuSans-63"/>
       <use x="205.810547" xlink:href="#DejaVuSans-74"/>
       <use x="245.019531" xlink:href="#DejaVuSans-72"/>
       <use x="286.132812" xlink:href="#DejaVuSans-61"/>
      </g>
     </g>
    </g>
    <g id="xtick_7">
     <g id="line2d_13">
      <path clip-path="url(#p4efdd91c0e)" d="M 255.734736 179.674812 
L 255.734736 18.998906 
" style="fill:none;stroke:#cbcbcb;"/>
     </g>
     <g id="line2d_14"/>
     <g id="text_7">
      <!-- jetcoin -->
      <defs>
       <path d="M 9.421875 54.6875 
L 18.40625 54.6875 
L 18.40625 -0.984375 
Q 18.40625 -11.421875 14.421875 -16.109375 
Q 10.453125 -20.796875 1.609375 -20.796875 
L -1.8125 -20.796875 
L -1.8125 -13.1875 
L 0.59375 -13.1875 
Q 5.71875 -13.1875 7.5625 -10.8125 
Q 9.421875 -8.453125 9.421875 -0.984375 
z
M 9.421875 75.984375 
L 18.40625 75.984375 
L 18.40625 64.59375 
L 9.421875 64.59375 
z
" id="DejaVuSans-6a"/>
      </defs>
      <g transform="translate(259.597861 230.192937)rotate(-90)scale(0.14 -0.14)">
       <use xlink:href="#DejaVuSans-6a"/>
       <use x="27.783203" xlink:href="#DejaVuSans-65"/>
       <use x="89.306641" xlink:href="#DejaVuSans-74"/>
       <use x="128.515625" xlink:href="#DejaVuSans-63"/>
       <use x="183.496094" xlink:href="#DejaVuSans-6f"/>
       <use x="244.677734" xlink:href="#DejaVuSans-69"/>
       <use x="272.460938" xlink:href="#DejaVuSans-6e"/>
      </g>
     </g>
    </g>
    <g id="xtick_8">
     <g id="line2d_15">
      <path clip-path="url(#p4efdd91c0e)" d="M 284.39957 179.674812 
L 284.39957 18.998906 
" style="fill:none;stroke:#cbcbcb;"/>
     </g>
     <g id="line2d_16"/>
     <g id="text_8">
      <!-- everus -->
      <defs>
       <path d="M 2.984375 54.6875 
L 12.5 54.6875 
L 29.59375 8.796875 
L 46.6875 54.6875 
L 56.203125 54.6875 
L 35.6875 0 
L 23.484375 0 
z
" id="DejaVuSans-76"/>
       <path d="M 8.5 21.578125 
L 8.5 54.6875 
L 17.484375 54.6875 
L 17.484375 21.921875 
Q 17.484375 14.15625 20.5 10.265625 
Q 23.53125 6.390625 29.59375 6.390625 
Q 36.859375 6.390625 41.078125 11.03125 
Q 45.3125 15.671875 45.3125 23.6875 
L 45.3125 54.6875 
L 54.296875 54.6875 
L 54.296875 0 
L 45.3125 0 
L 45.3125 8.40625 
Q 42.046875 3.421875 37.71875 1 
Q 33.40625 -1.421875 27.6875 -1.421875 
Q 18.265625 -1.421875 13.375 4.4375 
Q 8.5 10.296875 8.5 21.578125 
z
M 31.109375 56 
z
" id="DejaVuSans-75"/>
      </defs>
      <g transform="translate(288.262695 230.61075)rotate(-90)scale(0.14 -0.14)">
       <use xlink:href="#DejaVuSans-65"/>
       <use x="61.523438" xlink:href="#DejaVuSans-76"/>
       <use x="120.703125" xlink:href="#DejaVuSans-65"/>
       <use x="182.226562" xlink:href="#DejaVuSans-72"/>
       <use x="223.339844" xlink:href="#DejaVuSans-75"/>
       <use x="286.71875" xlink:href="#DejaVuSans-73"/>
      </g>
     </g>
    </g>
    <g id="xtick_9">
     <g id="line2d_17">
      <path clip-path="url(#p4efdd91c0e)" d="M 313.064405 179.674812 
L 313.064405 18.998906 
" style="fill:none;stroke:#cbcbcb;"/>
     </g>
     <g id="line2d_18"/>
     <g id="text_9">
      <!-- ether-for-the-rest-of-the-world -->
      <defs>
       <path d="M 54.890625 33.015625 
L 54.890625 0 
L 45.90625 0 
L 45.90625 32.71875 
Q 45.90625 40.484375 42.875 44.328125 
Q 39.84375 48.1875 33.796875 48.1875 
Q 26.515625 48.1875 22.3125 43.546875 
Q 18.109375 38.921875 18.109375 30.90625 
L 18.109375 0 
L 9.078125 0 
L 9.078125 75.984375 
L 18.109375 75.984375 
L 18.109375 46.1875 
Q 21.34375 51.125 25.703125 53.5625 
Q 30.078125 56 35.796875 56 
Q 45.21875 56 50.046875 50.171875 
Q 54.890625 44.34375 54.890625 33.015625 
z
" id="DejaVuSans-68"/>
       <path d="M 4.203125 54.6875 
L 13.1875 54.6875 
L 24.421875 12.015625 
L 35.59375 54.6875 
L 46.1875 54.6875 
L 57.421875 12.015625 
L 68.609375 54.6875 
L 77.59375 54.6875 
L 63.28125 0 
L 52.6875 0 
L 40.921875 44.828125 
L 29.109375 0 
L 18.5 0 
z
" id="DejaVuSans-77"/>
      </defs>
      <g transform="translate(316.92753 395.18075)rotate(-90)scale(0.14 -0.14)">
       <use xlink:href="#DejaVuSans-65"/>
       <use x="61.523438" xlink:href="#DejaVuSans-74"/>
       <use x="100.732422" xlink:href="#DejaVuSans-68"/>
       <use x="164.111328" xlink:href="#DejaVuSans-65"/>
       <use x="225.634766" xlink:href="#DejaVuSans-72"/>
       <use x="266.654297" xlink:href="#DejaVuSans-2d"/>
       <use x="302.738281" xlink:href="#DejaVuSans-66"/>
       <use x="337.943359" xlink:href="#DejaVuSans-6f"/>
       <use x="399.125" xlink:href="#DejaVuSans-72"/>
       <use x="440.144531" xlink:href="#DejaVuSans-2d"/>
       <use x="476.228516" xlink:href="#DejaVuSans-74"/>
       <use x="515.4375" xlink:href="#DejaVuSans-68"/>
       <use x="578.816406" xlink:href="#DejaVuSans-65"/>
       <use x="640.339844" xlink:href="#DejaVuSans-2d"/>
       <use x="676.423828" xlink:href="#DejaVuSans-72"/>
       <use x="717.505859" xlink:href="#DejaVuSans-65"/>
       <use x="779.029297" xlink:href="#DejaVuSans-73"/>
       <use x="831.128906" xlink:href="#DejaVuSans-74"/>
       <use x="870.337891" xlink:href="#DejaVuSans-2d"/>
       <use x="906.4375" xlink:href="#DejaVuSans-6f"/>
       <use x="967.619141" xlink:href="#DejaVuSans-66"/>
       <use x="1002.746094" xlink:href="#DejaVuSans-2d"/>
       <use x="1038.830078" xlink:href="#DejaVuSans-74"/>
       <use x="1078.039062" xlink:href="#DejaVuSans-68"/>
       <use x="1141.417969" xlink:href="#DejaVuSans-65"/>
       <use x="1202.941406" xlink:href="#DejaVuSans-2d"/>
       <use x="1239.025391" xlink:href="#DejaVuSans-77"/>
       <use x="1320.8125" xlink:href="#DejaVuSans-6f"/>
       <use x="1381.994141" xlink:href="#DejaVuSans-72"/>
       <use x="1423.107422" xlink:href="#DejaVuSans-6c"/>
       <use x="1450.890625" xlink:href="#DejaVuSans-64"/>
      </g>
     </g>
    </g>
    <g id="xtick_10">
     <g id="line2d_19">
      <path clip-path="url(#p4efdd91c0e)" d="M 341.729239 179.674812 
L 341.729239 18.998906 
" style="fill:none;stroke:#cbcbcb;"/>
     </g>
     <g id="line2d_20"/>
     <g id="text_10">
      <!-- landcoin -->
      <g transform="translate(345.592364 242.429812)rotate(-90)scale(0.14 -0.14)">
       <use xlink:href="#DejaVuSans-6c"/>
       <use x="27.783203" xlink:href="#DejaVuSans-61"/>
       <use x="89.0625" xlink:href="#DejaVuSans-6e"/>
       <use x="152.441406" xlink:href="#DejaVuSans-64"/>
       <use x="215.917969" xlink:href="#DejaVuSans-63"/>
       <use x="270.898438" xlink:href="#DejaVuSans-6f"/>
       <use x="332.080078" xlink:href="#DejaVuSans-69"/>
       <use x="359.863281" xlink:href="#DejaVuSans-6e"/>
      </g>
     </g>
    </g>
    <g id="text_11">
     <!-- id -->
     <g transform="translate(205.071172 411.946125)scale(0.168 -0.168)">
      <use xlink:href="#DejaVuSans-69"/>
      <use x="27.783203" xlink:href="#DejaVuSans-64"/>
     </g>
    </g>
   </g>
   <g id="matplotlib.axis_2">
    <g id="ytick_1">
     <g id="line2d_21">
      <path clip-path="url(#p4efdd91c0e)" d="M 69.413313 172.653563 
L 356.061656 172.653563 
" style="fill:none;stroke:#cbcbcb;"/>
     </g>
     <g id="line2d_22"/>
     <g id="text_12">
      <!-- −100 -->
      <defs>
       <path d="M 10.59375 35.5 
L 73.1875 35.5 
L 73.1875 27.203125 
L 10.59375 27.203125 
z
" id="DejaVuSans-2212"/>
       <path d="M 12.40625 8.296875 
L 28.515625 8.296875 
L 28.515625 63.921875 
L 10.984375 60.40625 
L 10.984375 69.390625 
L 28.421875 72.90625 
L 38.28125 72.90625 
L 38.28125 8.296875 
L 54.390625 8.296875 
L 54.390625 0 
L 12.40625 0 
z
" id="DejaVuSans-31"/>
       <path d="M 31.78125 66.40625 
Q 24.171875 66.40625 20.328125 58.90625 
Q 16.5 51.421875 16.5 36.375 
Q 16.5 21.390625 20.328125 13.890625 
Q 24.171875 6.390625 31.78125 6.390625 
Q 39.453125 6.390625 43.28125 13.890625 
Q 47.125 21.390625 47.125 36.375 
Q 47.125 51.421875 43.28125 58.90625 
Q 39.453125 66.40625 31.78125 66.40625 
z
M 31.78125 74.21875 
Q 44.046875 74.21875 50.515625 64.515625 
Q 56.984375 54.828125 56.984375 36.375 
Q 56.984375 17.96875 50.515625 8.265625 
Q 44.046875 -1.421875 31.78125 -1.421875 
Q 19.53125 -1.421875 13.0625 8.265625 
Q 6.59375 17.96875 6.59375 36.375 
Q 6.59375 54.828125 13.0625 64.515625 
Q 19.53125 74.21875 31.78125 74.21875 
z
" id="DejaVuSans-30"/>
      </defs>
      <g transform="translate(27.45925 177.972469)scale(0.14 -0.14)">
       <use xlink:href="#DejaVuSans-2212"/>
       <use x="83.789062" xlink:href="#DejaVuSans-31"/>
       <use x="147.412109" xlink:href="#DejaVuSans-30"/>
       <use x="211.035156" xlink:href="#DejaVuSans-30"/>
      </g>
     </g>
    </g>
    <g id="ytick_2">
     <g id="line2d_23">
      <path clip-path="url(#p4efdd91c0e)" d="M 69.413313 134.239899 
L 356.061656 134.239899 
" style="fill:none;stroke:#cbcbcb;"/>
     </g>
     <g id="line2d_24"/>
     <g id="text_13">
      <!-- −75 -->
      <defs>
       <path d="M 8.203125 72.90625 
L 55.078125 72.90625 
L 55.078125 68.703125 
L 28.609375 0 
L 18.3125 0 
L 43.21875 64.59375 
L 8.203125 64.59375 
z
" id="DejaVuSans-37"/>
       <path d="M 10.796875 72.90625 
L 49.515625 72.90625 
L 49.515625 64.59375 
L 19.828125 64.59375 
L 19.828125 46.734375 
Q 21.96875 47.46875 24.109375 47.828125 
Q 26.265625 48.1875 28.421875 48.1875 
Q 40.625 48.1875 47.75 41.5 
Q 54.890625 34.8125 54.890625 23.390625 
Q 54.890625 11.625 47.5625 5.09375 
Q 40.234375 -1.421875 26.90625 -1.421875 
Q 22.3125 -1.421875 17.546875 -0.640625 
Q 12.796875 0.140625 7.71875 1.703125 
L 7.71875 11.625 
Q 12.109375 9.234375 16.796875 8.0625 
Q 21.484375 6.890625 26.703125 6.890625 
Q 35.15625 6.890625 40.078125 11.328125 
Q 45.015625 15.765625 45.015625 23.390625 
Q 45.015625 31 40.078125 35.4375 
Q 35.15625 39.890625 26.703125 39.890625 
Q 22.75 39.890625 18.8125 39.015625 
Q 14.890625 38.140625 10.796875 36.28125 
z
" id="DejaVuSans-35"/>
      </defs>
      <g transform="translate(36.36675 139.558805)scale(0.14 -0.14)">
       <use xlink:href="#DejaVuSans-2212"/>
       <use x="83.789062" xlink:href="#DejaVuSans-37"/>
       <use x="147.412109" xlink:href="#DejaVuSans-35"/>
      </g>
     </g>
    </g>
    <g id="ytick_3">
     <g id="line2d_25">
      <path clip-path="url(#p4efdd91c0e)" d="M 69.413313 95.826235 
L 356.061656 95.826235 
" style="fill:none;stroke:#cbcbcb;"/>
     </g>
     <g id="line2d_26"/>
     <g id="text_14">
      <!-- −50 -->
      <g transform="translate(36.36675 101.145141)scale(0.14 -0.14)">
       <use xlink:href="#DejaVuSans-2212"/>
       <use x="83.789062" xlink:href="#DejaVuSans-35"/>
       <use x="147.412109" xlink:href="#DejaVuSans-30"/>
      </g>
     </g>
    </g>
    <g id="ytick_4">
     <g id="line2d_27">
      <path clip-path="url(#p4efdd91c0e)" d="M 69.413313 57.41257 
L 356.061656 57.41257 
" style="fill:none;stroke:#cbcbcb;"/>
     </g>
     <g id="line2d_28"/>
     <g id="text_15">
      <!-- −25 -->
      <defs>
       <path d="M 19.1875 8.296875 
L 53.609375 8.296875 
L 53.609375 0 
L 7.328125 0 
L 7.328125 8.296875 
Q 12.9375 14.109375 22.625 23.890625 
Q 32.328125 33.6875 34.8125 36.53125 
Q 39.546875 41.84375 41.421875 45.53125 
Q 43.3125 49.21875 43.3125 52.78125 
Q 43.3125 58.59375 39.234375 62.25 
Q 35.15625 65.921875 28.609375 65.921875 
Q 23.96875 65.921875 18.8125 64.3125 
Q 13.671875 62.703125 7.8125 59.421875 
L 7.8125 69.390625 
Q 13.765625 71.78125 18.9375 73 
Q 24.125 74.21875 28.421875 74.21875 
Q 39.75 74.21875 46.484375 68.546875 
Q 53.21875 62.890625 53.21875 53.421875 
Q 53.21875 48.921875 51.53125 44.890625 
Q 49.859375 40.875 45.40625 35.40625 
Q 44.1875 33.984375 37.640625 27.21875 
Q 31.109375 20.453125 19.1875 8.296875 
z
" id="DejaVuSans-32"/>
      </defs>
      <g transform="translate(36.36675 62.731477)scale(0.14 -0.14)">
       <use xlink:href="#DejaVuSans-2212"/>
       <use x="83.789062" xlink:href="#DejaVuSans-32"/>
       <use x="147.412109" xlink:href="#DejaVuSans-35"/>
      </g>
     </g>
    </g>
    <g id="ytick_5">
     <g id="line2d_29">
      <path clip-path="url(#p4efdd91c0e)" d="M 69.413313 18.998906 
L 356.061656 18.998906 
" style="fill:none;stroke:#cbcbcb;"/>
     </g>
     <g id="line2d_30"/>
     <g id="text_16">
      <!-- 0 -->
      <g transform="translate(57.005813 24.317812)scale(0.14 -0.14)">
       <use xlink:href="#DejaVuSans-30"/>
      </g>
     </g>
    </g>
    <g id="text_17">
     <!-- % change -->
     <defs>
      <path d="M 72.703125 32.078125 
Q 68.453125 32.078125 66.03125 28.46875 
Q 63.625 24.859375 63.625 18.40625 
Q 63.625 12.0625 66.03125 8.421875 
Q 68.453125 4.78125 72.703125 4.78125 
Q 76.859375 4.78125 79.265625 8.421875 
Q 81.6875 12.0625 81.6875 18.40625 
Q 81.6875 24.8125 79.265625 28.4375 
Q 76.859375 32.078125 72.703125 32.078125 
z
M 72.703125 38.28125 
Q 80.421875 38.28125 84.953125 32.90625 
Q 89.5 27.546875 89.5 18.40625 
Q 89.5 9.28125 84.9375 3.921875 
Q 80.375 -1.421875 72.703125 -1.421875 
Q 64.890625 -1.421875 60.34375 3.921875 
Q 55.8125 9.28125 55.8125 18.40625 
Q 55.8125 27.59375 60.375 32.9375 
Q 64.9375 38.28125 72.703125 38.28125 
z
M 22.3125 68.015625 
Q 18.109375 68.015625 15.6875 64.375 
Q 13.28125 60.75 13.28125 54.390625 
Q 13.28125 47.953125 15.671875 44.328125 
Q 18.0625 40.71875 22.3125 40.71875 
Q 26.5625 40.71875 28.96875 44.328125 
Q 31.390625 47.953125 31.390625 54.390625 
Q 31.390625 60.6875 28.953125 64.34375 
Q 26.515625 68.015625 22.3125 68.015625 
z
M 66.40625 74.21875 
L 74.21875 74.21875 
L 28.609375 -1.421875 
L 20.796875 -1.421875 
z
M 22.3125 74.21875 
Q 30.03125 74.21875 34.609375 68.875 
Q 39.203125 63.53125 39.203125 54.390625 
Q 39.203125 45.171875 34.640625 39.84375 
Q 30.078125 34.515625 22.3125 34.515625 
Q 14.546875 34.515625 10.03125 39.859375 
Q 5.515625 45.21875 5.515625 54.390625 
Q 5.515625 63.484375 10.046875 68.84375 
Q 14.59375 74.21875 22.3125 74.21875 
z
" id="DejaVuSans-25"/>
      <path id="DejaVuSans-20"/>
     </defs>
     <g transform="translate(19.965375 140.902422)rotate(-90)scale(0.168 -0.168)">
      <use xlink:href="#DejaVuSans-25"/>
      <use x="95.019531" xlink:href="#DejaVuSans-20"/>
      <use x="126.806641" xlink:href="#DejaVuSans-63"/>
      <use x="181.787109" xlink:href="#DejaVuSans-68"/>
      <use x="245.166016" xlink:href="#DejaVuSans-61"/>
      <use x="306.445312" xlink:href="#DejaVuSans-6e"/>
      <use x="369.824219" xlink:href="#DejaVuSans-67"/>
      <use x="433.300781" xlink:href="#DejaVuSans-65"/>
     </g>
    </g>
   </g>
   <g id="patch_3">
    <path clip-path="url(#p4efdd91c0e)" d="M 76.579521 18.998906 
L 90.911938 18.998906 
L 90.911938 172.023579 
L 76.579521 172.023579 
z
" style="fill:#8b0000;"/>
   </g>
   <g id="patch_4">
    <path clip-path="url(#p4efdd91c0e)" d="M 105.244355 18.998906 
L 119.576773 18.998906 
L 119.576773 167.44467 
L 105.244355 167.44467 
z
" style="fill:#8b0000;"/>
   </g>
   <g id="patch_5">
    <path clip-path="url(#p4efdd91c0e)" d="M 133.90919 18.998906 
L 148.241607 18.998906 
L 148.241607 165.44716 
L 133.90919 165.44716 
z
" style="fill:#8b0000;"/>
   </g>
   <g id="patch_6">
    <path clip-path="url(#p4efdd91c0e)" d="M 162.574024 18.998906 
L 176.906441 18.998906 
L 176.906441 161.406042 
L 162.574024 161.406042 
z
" style="fill:#8b0000;"/>
   </g>
   <g id="patch_7">
    <path clip-path="url(#p4efdd91c0e)" d="M 191.238859 18.998906 
L 205.571276 18.998906 
L 205.571276 153.339173 
L 191.238859 153.339173 
z
" style="fill:#8b0000;"/>
   </g>
   <g id="patch_8">
    <path clip-path="url(#p4efdd91c0e)" d="M 219.903693 18.998906 
L 234.23611 18.998906 
L 234.23611 143.904777 
L 219.903693 143.904777 
z
" style="fill:#8b0000;"/>
   </g>
   <g id="patch_9">
    <path clip-path="url(#p4efdd91c0e)" d="M 248.568527 18.998906 
L 262.900945 18.998906 
L 262.900945 142.936752 
L 248.568527 142.936752 
z
" style="fill:#8b0000;"/>
   </g>
   <g id="patch_10">
    <path clip-path="url(#p4efdd91c0e)" d="M 277.233362 18.998906 
L 291.565779 18.998906 
L 291.565779 137.097875 
L 277.233362 137.097875 
z
" style="fill:#8b0000;"/>
   </g>
   <g id="patch_11">
    <path clip-path="url(#p4efdd91c0e)" d="M 305.898196 18.998906 
L 320.230613 18.998906 
L 320.230613 134.285995 
L 305.898196 134.285995 
z
" style="fill:#8b0000;"/>
   </g>
   <g id="patch_12">
    <path clip-path="url(#p4efdd91c0e)" d="M 334.56303 18.998906 
L 348.895448 18.998906 
L 348.895448 132.119465 
L 334.56303 132.119465 
z
" style="fill:#8b0000;"/>
   </g>
   <g id="patch_13">
    <path d="M 69.413313 179.674812 
L 69.413313 18.998906 
" style="fill:none;stroke:#f0f0f0;stroke-linecap:square;stroke-linejoin:miter;stroke-width:3;"/>
   </g>
   <g id="patch_14">
    <path d="M 356.061656 179.674812 
L 356.061656 18.998906 
" style="fill:none;stroke:#f0f0f0;stroke-linecap:square;stroke-linejoin:miter;stroke-width:3;"/>
   </g>
   <g id="patch_15">
    <path d="M 69.413313 179.674812 
L 356.061656 179.674812 
" style="fill:none;stroke:#f0f0f0;stroke-linecap:square;stroke-linejoin:miter;stroke-width:3;"/>
   </g>
   <g id="patch_16">
    <path d="M 69.413313 18.998906 
L 356.061656 18.998906 
" style="fill:none;stroke:#f0f0f0;stroke-linecap:square;stroke-linejoin:miter;stroke-width:3;"/>
   </g>
  </g>
  <g id="axes_2">
   <g id="patch_17">
    <path d="M 410.311656 179.674812 
L 696.96 179.674812 
L 696.96 18.998906 
L 410.311656 18.998906 
z
" style="fill:#f0f0f0;"/>
   </g>
   <g id="matplotlib.axis_3">
    <g id="xtick_11">
     <g id="line2d_31">
      <path clip-path="url(#p88b5e3c0a3)" d="M 424.644073 179.674812 
L 424.644073 18.998906 
" style="fill:none;stroke:#cbcbcb;"/>
     </g>
     <g id="line2d_32"/>
     <g id="text_18">
      <!-- litebitcoin -->
      <defs>
       <path d="M 48.6875 27.296875 
Q 48.6875 37.203125 44.609375 42.84375 
Q 40.53125 48.484375 33.40625 48.484375 
Q 26.265625 48.484375 22.1875 42.84375 
Q 18.109375 37.203125 18.109375 27.296875 
Q 18.109375 17.390625 22.1875 11.75 
Q 26.265625 6.109375 33.40625 6.109375 
Q 40.53125 6.109375 44.609375 11.75 
Q 48.6875 17.390625 48.6875 27.296875 
z
M 18.109375 46.390625 
Q 20.953125 51.265625 25.265625 53.625 
Q 29.59375 56 35.59375 56 
Q 45.5625 56 51.78125 48.09375 
Q 58.015625 40.1875 58.015625 27.296875 
Q 58.015625 14.40625 51.78125 6.484375 
Q 45.5625 -1.421875 35.59375 -1.421875 
Q 29.59375 -1.421875 25.265625 0.953125 
Q 20.953125 3.328125 18.109375 8.203125 
L 18.109375 0 
L 9.078125 0 
L 9.078125 75.984375 
L 18.109375 75.984375 
z
" id="DejaVuSans-62"/>
      </defs>
      <g transform="translate(428.507198 252.347937)rotate(-90)scale(0.14 -0.14)">
       <use xlink:href="#DejaVuSans-6c"/>
       <use x="27.783203" xlink:href="#DejaVuSans-69"/>
       <use x="55.566406" xlink:href="#DejaVuSans-74"/>
       <use x="94.775391" xlink:href="#DejaVuSans-65"/>
       <use x="156.298828" xlink:href="#DejaVuSans-62"/>
       <use x="219.775391" xlink:href="#DejaVuSans-69"/>
       <use x="247.558594" xlink:href="#DejaVuSans-74"/>
       <use x="286.767578" xlink:href="#DejaVuSans-63"/>
       <use x="341.748047" xlink:href="#DejaVuSans-6f"/>
       <use x="402.929688" xlink:href="#DejaVuSans-69"/>
       <use x="430.712891" xlink:href="#DejaVuSans-6e"/>
      </g>
     </g>
    </g>
    <g id="xtick_12">
     <g id="line2d_33">
      <path clip-path="url(#p88b5e3c0a3)" d="M 453.308908 179.674812 
L 453.308908 18.998906 
" style="fill:none;stroke:#cbcbcb;"/>
     </g>
     <g id="line2d_34"/>
     <g id="text_19">
      <!-- asiacoin -->
      <g transform="translate(457.172033 240.542)rotate(-90)scale(0.14 -0.14)">
       <use xlink:href="#DejaVuSans-61"/>
       <use x="61.279297" xlink:href="#DejaVuSans-73"/>
       <use x="113.378906" xlink:href="#DejaVuSans-69"/>
       <use x="141.162109" xlink:href="#DejaVuSans-61"/>
       <use x="202.441406" xlink:href="#DejaVuSans-63"/>
       <use x="257.421875" xlink:href="#DejaVuSans-6f"/>
       <use x="318.603516" xlink:href="#DejaVuSans-69"/>
       <use x="346.386719" xlink:href="#DejaVuSans-6e"/>
      </g>
     </g>
    </g>
    <g id="xtick_13">
     <g id="line2d_35">
      <path clip-path="url(#p88b5e3c0a3)" d="M 481.973742 179.674812 
L 481.973742 18.998906 
" style="fill:none;stroke:#cbcbcb;"/>
     </g>
     <g id="line2d_36"/>
     <g id="text_20">
      <!-- ebit -->
      <g transform="translate(485.836867 210.054812)rotate(-90)scale(0.14 -0.14)">
       <use xlink:href="#DejaVuSans-65"/>
       <use x="61.523438" xlink:href="#DejaVuSans-62"/>
       <use x="125" xlink:href="#DejaVuSans-69"/>
       <use x="152.783203" xlink:href="#DejaVuSans-74"/>
      </g>
     </g>
    </g>
    <g id="xtick_14">
     <g id="line2d_37">
      <path clip-path="url(#p88b5e3c0a3)" d="M 510.638577 179.674812 
L 510.638577 18.998906 
" style="fill:none;stroke:#cbcbcb;"/>
     </g>
     <g id="line2d_38"/>
     <g id="text_21">
      <!-- petrodollar -->
      <g transform="translate(514.501702 260.050125)rotate(-90)scale(0.14 -0.14)">
       <use xlink:href="#DejaVuSans-70"/>
       <use x="63.476562" xlink:href="#DejaVuSans-65"/>
       <use x="125" xlink:href="#DejaVuSans-74"/>
       <use x="164.208984" xlink:href="#DejaVuSans-72"/>
       <use x="205.291016" xlink:href="#DejaVuSans-6f"/>
       <use x="266.472656" xlink:href="#DejaVuSans-64"/>
       <use x="329.949219" xlink:href="#DejaVuSans-6f"/>
       <use x="391.130859" xlink:href="#DejaVuSans-6c"/>
       <use x="418.914062" xlink:href="#DejaVuSans-6c"/>
       <use x="446.697266" xlink:href="#DejaVuSans-61"/>
       <use x="507.976562" xlink:href="#DejaVuSans-72"/>
      </g>
     </g>
    </g>
    <g id="xtick_15">
     <g id="line2d_39">
      <path clip-path="url(#p88b5e3c0a3)" d="M 539.303411 179.674812 
L 539.303411 18.998906 
" style="fill:none;stroke:#cbcbcb;"/>
     </g>
     <g id="line2d_40"/>
     <g id="text_22">
      <!-- erc20 -->
      <g transform="translate(543.166536 223.052937)rotate(-90)scale(0.14 -0.14)">
       <use xlink:href="#DejaVuSans-65"/>
       <use x="61.523438" xlink:href="#DejaVuSans-72"/>
       <use x="102.605469" xlink:href="#DejaVuSans-63"/>
       <use x="157.585938" xlink:href="#DejaVuSans-32"/>
       <use x="221.208984" xlink:href="#DejaVuSans-30"/>
      </g>
     </g>
    </g>
    <g id="xtick_16">
     <g id="line2d_41">
      <path clip-path="url(#p88b5e3c0a3)" d="M 567.968245 179.674812 
L 567.968245 18.998906 
" style="fill:none;stroke:#cbcbcb;"/>
     </g>
     <g id="line2d_42"/>
     <g id="text_23">
      <!-- yoyow -->
      <g transform="translate(571.83137 228.329187)rotate(-90)scale(0.14 -0.14)">
       <use xlink:href="#DejaVuSans-79"/>
       <use x="59.179688" xlink:href="#DejaVuSans-6f"/>
       <use x="120.361328" xlink:href="#DejaVuSans-79"/>
       <use x="179.541016" xlink:href="#DejaVuSans-6f"/>
       <use x="240.722656" xlink:href="#DejaVuSans-77"/>
      </g>
     </g>
    </g>
    <g id="xtick_17">
     <g id="line2d_43">
      <path clip-path="url(#p88b5e3c0a3)" d="M 596.63308 179.674812 
L 596.63308 18.998906 
" style="fill:none;stroke:#cbcbcb;"/>
     </g>
     <g id="line2d_44"/>
     <g id="text_24">
      <!-- comet -->
      <defs>
       <path d="M 52 44.1875 
Q 55.375 50.25 60.0625 53.125 
Q 64.75 56 71.09375 56 
Q 79.640625 56 84.28125 50.015625 
Q 88.921875 44.046875 88.921875 33.015625 
L 88.921875 0 
L 79.890625 0 
L 79.890625 32.71875 
Q 79.890625 40.578125 77.09375 44.375 
Q 74.3125 48.1875 68.609375 48.1875 
Q 61.625 48.1875 57.5625 43.546875 
Q 53.515625 38.921875 53.515625 30.90625 
L 53.515625 0 
L 44.484375 0 
L 44.484375 32.71875 
Q 44.484375 40.625 41.703125 44.40625 
Q 38.921875 48.1875 33.109375 48.1875 
Q 26.21875 48.1875 22.15625 43.53125 
Q 18.109375 38.875 18.109375 30.90625 
L 18.109375 0 
L 9.078125 0 
L 9.078125 54.6875 
L 18.109375 54.6875 
L 18.109375 46.1875 
Q 21.1875 51.21875 25.484375 53.609375 
Q 29.78125 56 35.6875 56 
Q 41.65625 56 45.828125 52.96875 
Q 50 49.953125 52 44.1875 
z
" id="DejaVuSans-6d"/>
      </defs>
      <g transform="translate(600.496205 227.178562)rotate(-90)scale(0.14 -0.14)">
       <use xlink:href="#DejaVuSans-63"/>
       <use x="54.980469" xlink:href="#DejaVuSans-6f"/>
       <use x="116.162109" xlink:href="#DejaVuSans-6d"/>
       <use x="213.574219" xlink:href="#DejaVuSans-65"/>
       <use x="275.097656" xlink:href="#DejaVuSans-74"/>
      </g>
     </g>
    </g>
    <g id="xtick_18">
     <g id="line2d_45">
      <path clip-path="url(#p88b5e3c0a3)" d="M 625.297914 179.674812 
L 625.297914 18.998906 
" style="fill:none;stroke:#cbcbcb;"/>
     </g>
     <g id="line2d_46"/>
     <g id="text_25">
      <!-- btcmoon -->
      <g transform="translate(629.161039 244.89075)rotate(-90)scale(0.14 -0.14)">
       <use xlink:href="#DejaVuSans-62"/>
       <use x="63.476562" xlink:href="#DejaVuSans-74"/>
       <use x="102.685547" xlink:href="#DejaVuSans-63"/>
       <use x="157.666016" xlink:href="#DejaVuSans-6d"/>
       <use x="255.078125" xlink:href="#DejaVuSans-6f"/>
       <use x="316.259766" xlink:href="#DejaVuSans-6f"/>
       <use x="377.441406" xlink:href="#DejaVuSans-6e"/>
      </g>
     </g>
    </g>
    <g id="xtick_19">
     <g id="line2d_47">
      <path clip-path="url(#p88b5e3c0a3)" d="M 653.962748 179.674812 
L 653.962748 18.998906 
" style="fill:none;stroke:#cbcbcb;"/>
     </g>
     <g id="line2d_48"/>
     <g id="text_26">
      <!-- bitcoin-red -->
      <g transform="translate(657.825873 258.770437)rotate(-90)scale(0.14 -0.14)">
       <use xlink:href="#DejaVuSans-62"/>
       <use x="63.476562" xlink:href="#DejaVuSans-69"/>
       <use x="91.259766" xlink:href="#DejaVuSans-74"/>
       <use x="130.46875" xlink:href="#DejaVuSans-63"/>
       <use x="185.449219" xlink:href="#DejaVuSans-6f"/>
       <use x="246.630859" xlink:href="#DejaVuSans-69"/>
       <use x="274.414062" xlink:href="#DejaVuSans-6e"/>
       <use x="337.792969" xlink:href="#DejaVuSans-2d"/>
       <use x="373.876953" xlink:href="#DejaVuSans-72"/>
       <use x="414.958984" xlink:href="#DejaVuSans-65"/>
       <use x="476.482422" xlink:href="#DejaVuSans-64"/>
      </g>
     </g>
    </g>
    <g id="xtick_20">
     <g id="line2d_49">
      <path clip-path="url(#p88b5e3c0a3)" d="M 682.627583 179.674812 
L 682.627583 18.998906 
" style="fill:none;stroke:#cbcbcb;"/>
     </g>
     <g id="line2d_50"/>
     <g id="text_27">
      <!-- bitzeny -->
      <defs>
       <path d="M 5.515625 54.6875 
L 48.1875 54.6875 
L 48.1875 46.484375 
L 14.40625 7.171875 
L 48.1875 7.171875 
L 48.1875 0 
L 4.296875 0 
L 4.296875 8.203125 
L 38.09375 47.515625 
L 5.515625 47.515625 
z
" id="DejaVuSans-7a"/>
      </defs>
      <g transform="translate(686.490708 234.561375)rotate(-90)scale(0.14 -0.14)">
       <use xlink:href="#DejaVuSans-62"/>
       <use x="63.476562" xlink:href="#DejaVuSans-69"/>
       <use x="91.259766" xlink:href="#DejaVuSans-74"/>
       <use x="130.46875" xlink:href="#DejaVuSans-7a"/>
       <use x="182.958984" xlink:href="#DejaVuSans-65"/>
       <use x="244.482422" xlink:href="#DejaVuSans-6e"/>
       <use x="307.861328" xlink:href="#DejaVuSans-79"/>
      </g>
     </g>
    </g>
    <g id="text_28">
     <!-- id -->
     <g transform="translate(545.969516 276.8155)scale(0.168 -0.168)">
      <use xlink:href="#DejaVuSans-69"/>
      <use x="27.783203" xlink:href="#DejaVuSans-64"/>
     </g>
    </g>
   </g>
   <g id="matplotlib.axis_4">
    <g id="ytick_6">
     <g id="line2d_51">
      <path clip-path="url(#p88b5e3c0a3)" d="M 410.311656 179.674812 
L 696.96 179.674812 
" style="fill:none;stroke:#cbcbcb;"/>
     </g>
     <g id="line2d_52"/>
     <g id="text_29">
      <!-- 0 -->
      <g transform="translate(397.904156 184.993719)scale(0.14 -0.14)">
       <use xlink:href="#DejaVuSans-30"/>
      </g>
     </g>
    </g>
    <g id="ytick_7">
     <g id="line2d_53">
      <path clip-path="url(#p88b5e3c0a3)" d="M 410.311656 134.141377 
L 696.96 134.141377 
" style="fill:none;stroke:#cbcbcb;"/>
     </g>
     <g id="line2d_54"/>
     <g id="text_30">
      <!-- 1000 -->
      <g transform="translate(371.181656 139.460283)scale(0.14 -0.14)">
       <use xlink:href="#DejaVuSans-31"/>
       <use x="63.623047" xlink:href="#DejaVuSans-30"/>
       <use x="127.246094" xlink:href="#DejaVuSans-30"/>
       <use x="190.869141" xlink:href="#DejaVuSans-30"/>
      </g>
     </g>
    </g>
    <g id="ytick_8">
     <g id="line2d_55">
      <path clip-path="url(#p88b5e3c0a3)" d="M 410.311656 88.607941 
L 696.96 88.607941 
" style="fill:none;stroke:#cbcbcb;"/>
     </g>
     <g id="line2d_56"/>
     <g id="text_31">
      <!-- 2000 -->
      <g transform="translate(371.181656 93.926847)scale(0.14 -0.14)">
       <use xlink:href="#DejaVuSans-32"/>
       <use x="63.623047" xlink:href="#DejaVuSans-30"/>
       <use x="127.246094" xlink:href="#DejaVuSans-30"/>
       <use x="190.869141" xlink:href="#DejaVuSans-30"/>
      </g>
     </g>
    </g>
    <g id="ytick_9">
     <g id="line2d_57">
      <path clip-path="url(#p88b5e3c0a3)" d="M 410.311656 43.074505 
L 696.96 43.074505 
" style="fill:none;stroke:#cbcbcb;"/>
     </g>
     <g id="line2d_58"/>
     <g id="text_32">
      <!-- 3000 -->
      <defs>
       <path d="M 40.578125 39.3125 
Q 47.65625 37.796875 51.625 33 
Q 55.609375 28.21875 55.609375 21.1875 
Q 55.609375 10.40625 48.1875 4.484375 
Q 40.765625 -1.421875 27.09375 -1.421875 
Q 22.515625 -1.421875 17.65625 -0.515625 
Q 12.796875 0.390625 7.625 2.203125 
L 7.625 11.71875 
Q 11.71875 9.328125 16.59375 8.109375 
Q 21.484375 6.890625 26.8125 6.890625 
Q 36.078125 6.890625 40.9375 10.546875 
Q 45.796875 14.203125 45.796875 21.1875 
Q 45.796875 27.640625 41.28125 31.265625 
Q 36.765625 34.90625 28.71875 34.90625 
L 20.21875 34.90625 
L 20.21875 43.015625 
L 29.109375 43.015625 
Q 36.375 43.015625 40.234375 45.921875 
Q 44.09375 48.828125 44.09375 54.296875 
Q 44.09375 59.90625 40.109375 62.90625 
Q 36.140625 65.921875 28.71875 65.921875 
Q 24.65625 65.921875 20.015625 65.03125 
Q 15.375 64.15625 9.8125 62.3125 
L 9.8125 71.09375 
Q 15.4375 72.65625 20.34375 73.4375 
Q 25.25 74.21875 29.59375 74.21875 
Q 40.828125 74.21875 47.359375 69.109375 
Q 53.90625 64.015625 53.90625 55.328125 
Q 53.90625 49.265625 50.4375 45.09375 
Q 46.96875 40.921875 40.578125 39.3125 
z
" id="DejaVuSans-33"/>
      </defs>
      <g transform="translate(371.181656 48.393412)scale(0.14 -0.14)">
       <use xlink:href="#DejaVuSans-33"/>
       <use x="63.623047" xlink:href="#DejaVuSans-30"/>
       <use x="127.246094" xlink:href="#DejaVuSans-30"/>
       <use x="190.869141" xlink:href="#DejaVuSans-30"/>
      </g>
     </g>
    </g>
   </g>
   <g id="patch_18">
    <path clip-path="url(#p88b5e3c0a3)" d="M 417.477865 179.674812 
L 431.810282 179.674812 
L 431.810282 158.055537 
L 417.477865 158.055537 
z
" style="fill:#00008b;"/>
   </g>
   <g id="patch_19">
    <path clip-path="url(#p88b5e3c0a3)" d="M 446.142699 179.674812 
L 460.475116 179.674812 
L 460.475116 155.930492 
L 446.142699 155.930492 
z
" style="fill:#00008b;"/>
   </g>
   <g id="patch_20">
    <path clip-path="url(#p88b5e3c0a3)" d="M 474.807534 179.674812 
L 489.139951 179.674812 
L 489.139951 155.736519 
L 474.807534 155.736519 
z
" style="fill:#00008b;"/>
   </g>
   <g id="patch_21">
    <path clip-path="url(#p88b5e3c0a3)" d="M 503.472368 179.674812 
L 517.804785 179.674812 
L 517.804785 154.951978 
L 503.472368 154.951978 
z
" style="fill:#00008b;"/>
   </g>
   <g id="patch_22">
    <path clip-path="url(#p88b5e3c0a3)" d="M 532.137202 179.674812 
L 546.46962 179.674812 
L 546.46962 154.825851 
L 532.137202 154.825851 
z
" style="fill:#00008b;"/>
   </g>
   <g id="patch_23">
    <path clip-path="url(#p88b5e3c0a3)" d="M 560.802037 179.674812 
L 575.134454 179.674812 
L 575.134454 154.762559 
L 560.802037 154.762559 
z
" style="fill:#00008b;"/>
   </g>
   <g id="patch_24">
    <path clip-path="url(#p88b5e3c0a3)" d="M 589.466871 179.674812 
L 603.799288 179.674812 
L 603.799288 154.155143 
L 589.466871 154.155143 
z
" style="fill:#00008b;"/>
   </g>
   <g id="patch_25">
    <path clip-path="url(#p88b5e3c0a3)" d="M 618.131705 179.674812 
L 632.464123 179.674812 
L 632.464123 153.169344 
L 618.131705 153.169344 
z
" style="fill:#00008b;"/>
   </g>
   <g id="patch_26">
    <path clip-path="url(#p88b5e3c0a3)" d="M 646.79654 179.674812 
L 661.128957 179.674812 
L 661.128957 148.103294 
L 646.79654 148.103294 
z
" style="fill:#00008b;"/>
   </g>
   <g id="patch_27">
    <path clip-path="url(#p88b5e3c0a3)" d="M 675.461374 179.674812 
L 689.793791 179.674812 
L 689.793791 26.65014 
L 675.461374 26.65014 
z
" style="fill:#00008b;"/>
   </g>
   <g id="patch_28">
    <path d="M 410.311656 179.674812 
L 410.311656 18.998906 
" style="fill:none;stroke:#f0f0f0;stroke-linecap:square;stroke-linejoin:miter;stroke-width:3;"/>
   </g>
   <g id="patch_29">
    <path d="M 696.96 179.674812 
L 696.96 18.998906 
" style="fill:none;stroke:#f0f0f0;stroke-linecap:square;stroke-linejoin:miter;stroke-width:3;"/>
   </g>
   <g id="patch_30">
    <path d="M 410.311656 179.674812 
L 696.96 179.674812 
" style="fill:none;stroke:#f0f0f0;stroke-linecap:square;stroke-linejoin:miter;stroke-width:3;"/>
   </g>
   <g id="patch_31">
    <path d="M 410.311656 18.998906 
L 696.96 18.998906 
" style="fill:none;stroke:#f0f0f0;stroke-linecap:square;stroke-linejoin:miter;stroke-width:3;"/>
   </g>
  </g>
  <g id="text_33">
   <!-- Weekly top losers and winners -->
   <defs>
    <path d="M 3.328125 72.90625 
L 13.28125 72.90625 
L 28.609375 11.28125 
L 43.890625 72.90625 
L 54.984375 72.90625 
L 70.3125 11.28125 
L 85.59375 72.90625 
L 95.609375 72.90625 
L 77.296875 0 
L 64.890625 0 
L 49.515625 63.28125 
L 33.984375 0 
L 21.578125 0 
z
" id="DejaVuSans-57"/>
    <path d="M 9.078125 75.984375 
L 18.109375 75.984375 
L 18.109375 31.109375 
L 44.921875 54.6875 
L 56.390625 54.6875 
L 27.390625 29.109375 
L 57.625 0 
L 45.90625 0 
L 18.109375 26.703125 
L 18.109375 0 
L 9.078125 0 
z
" id="DejaVuSans-6b"/>
   </defs>
   <g transform="translate(223.331625 19.965375)scale(0.168 -0.168)">
    <use xlink:href="#DejaVuSans-57"/>
    <use x="98.798828" xlink:href="#DejaVuSans-65"/>
    <use x="160.322266" xlink:href="#DejaVuSans-65"/>
    <use x="221.845703" xlink:href="#DejaVuSans-6b"/>
    <use x="279.755859" xlink:href="#DejaVuSans-6c"/>
    <use x="307.539062" xlink:href="#DejaVuSans-79"/>
    <use x="366.71875" xlink:href="#DejaVuSans-20"/>
    <use x="398.505859" xlink:href="#DejaVuSans-74"/>
    <use x="437.714844" xlink:href="#DejaVuSans-6f"/>
    <use x="498.896484" xlink:href="#DejaVuSans-70"/>
    <use x="562.373047" xlink:href="#DejaVuSans-20"/>
    <use x="594.160156" xlink:href="#DejaVuSans-6c"/>
    <use x="621.943359" xlink:href="#DejaVuSans-6f"/>
    <use x="683.125" xlink:href="#DejaVuSans-73"/>
    <use x="735.224609" xlink:href="#DejaVuSans-65"/>
    <use x="796.748047" xlink:href="#DejaVuSans-72"/>
    <use x="837.861328" xlink:href="#DejaVuSans-73"/>
    <use x="889.960938" xlink:href="#DejaVuSans-20"/>
    <use x="921.748047" xlink:href="#DejaVuSans-61"/>
    <use x="983.027344" xlink:href="#DejaVuSans-6e"/>
    <use x="1046.40625" xlink:href="#DejaVuSans-64"/>
    <use x="1109.882812" xlink:href="#DejaVuSans-20"/>
    <use x="1141.669922" xlink:href="#DejaVuSans-77"/>
    <use x="1223.457031" xlink:href="#DejaVuSans-69"/>
    <use x="1251.240234" xlink:href="#DejaVuSans-6e"/>
    <use x="1314.619141" xlink:href="#DejaVuSans-6e"/>
    <use x="1377.998047" xlink:href="#DejaVuSans-65"/>
    <use x="1439.521484" xlink:href="#DejaVuSans-72"/>
    <use x="1480.634766" xlink:href="#DejaVuSans-73"/>
   </g>
  </g>
 </g>
 <defs>
  <clipPath id="p4efdd91c0e">
   <rect height="160.675906" width="286.648344" x="69.413313" y="18.998906"/>
  </clipPath>
  <clipPath id="p88b5e3c0a3">
   <rect height="160.675906" width="286.648344" x="410.311656" y="18.998906"/>
  </clipPath>
 </defs>
</svg>
